<mxfile host="app.diagrams.net" modified="2021-09-30T22:28:51.495Z" agent="5.0 (Windows)" etag="UqcGPxUsCAHiB1dUZw6O" version="15.3.7" type="github">
  <diagram id="C5RBs43oDa-KdzZeNtuy" name="Page-1">
    <mxGraphModel dx="716" dy="370" grid="1" gridSize="10" guides="1" tooltips="1" connect="1" arrows="1" fold="1" page="1" pageScale="1" pageWidth="827" pageHeight="1169" math="0" shadow="0">
      <root>
        <mxCell id="WIyWlLk6GJQsqaUBKTNV-0" />
        <mxCell id="WIyWlLk6GJQsqaUBKTNV-1" parent="WIyWlLk6GJQsqaUBKTNV-0" />
        <mxCell id="WIyWlLk6GJQsqaUBKTNV-4" value="&lt;div&gt;Save point&lt;/div&gt;" style="rounded=0;html=1;jettySize=auto;orthogonalLoop=1;fontSize=11;endArrow=block;endFill=0;endSize=8;strokeWidth=1;shadow=0;labelBackgroundColor=none;edgeStyle=orthogonalEdgeStyle;entryX=0.5;entryY=0;entryDx=0;entryDy=0;" parent="WIyWlLk6GJQsqaUBKTNV-1" source="v_dUgt0FiKQHOgwZnpZi-18" target="WIyWlLk6GJQsqaUBKTNV-11" edge="1">
          <mxGeometry x="0.3123" y="-18" relative="1" as="geometry">
            <mxPoint as="offset" />
            <mxPoint x="370" y="198" as="sourcePoint" />
            <mxPoint x="320" y="238" as="targetPoint" />
            <Array as="points">
              <mxPoint x="370" y="218" />
              <mxPoint x="320" y="218" />
            </Array>
          </mxGeometry>
        </mxCell>
        <mxCell id="WIyWlLk6GJQsqaUBKTNV-7" value="&lt;div&gt;Display date and progress&lt;/div&gt;" style="rounded=1;whiteSpace=wrap;html=1;fontSize=12;glass=0;strokeWidth=1;shadow=0;" parent="WIyWlLk6GJQsqaUBKTNV-1" vertex="1">
          <mxGeometry x="325" y="30" width="150" height="20" as="geometry" />
        </mxCell>
        <mxCell id="WIyWlLk6GJQsqaUBKTNV-11" value="Get save point from TXT and display formatted" style="rounded=1;whiteSpace=wrap;html=1;fontSize=12;glass=0;strokeWidth=1;shadow=0;" parent="WIyWlLk6GJQsqaUBKTNV-1" vertex="1">
          <mxGeometry x="260" y="238" width="120" height="50" as="geometry" />
        </mxCell>
        <mxCell id="v_dUgt0FiKQHOgwZnpZi-7" value="" style="rounded=0;html=1;jettySize=auto;orthogonalLoop=1;fontSize=11;endArrow=block;endFill=0;endSize=8;strokeWidth=1;shadow=0;labelBackgroundColor=none;edgeStyle=orthogonalEdgeStyle;entryX=0.5;entryY=0;entryDx=0;entryDy=0;exitX=0.5;exitY=1;exitDx=0;exitDy=0;" edge="1" parent="WIyWlLk6GJQsqaUBKTNV-1" source="WIyWlLk6GJQsqaUBKTNV-7" target="v_dUgt0FiKQHOgwZnpZi-18">
          <mxGeometry relative="1" as="geometry">
            <mxPoint x="410" y="72" as="sourcePoint" />
            <mxPoint x="400" y="110" as="targetPoint" />
            <Array as="points" />
          </mxGeometry>
        </mxCell>
        <mxCell id="v_dUgt0FiKQHOgwZnpZi-8" value="&lt;div&gt;Weekly&lt;/div&gt;" style="rounded=0;html=1;jettySize=auto;orthogonalLoop=1;fontSize=11;endArrow=block;endFill=0;endSize=8;strokeWidth=1;shadow=0;labelBackgroundColor=none;edgeStyle=orthogonalEdgeStyle;exitX=0.75;exitY=1;exitDx=0;exitDy=0;" edge="1" parent="WIyWlLk6GJQsqaUBKTNV-1" target="v_dUgt0FiKQHOgwZnpZi-11">
          <mxGeometry x="0.3559" y="20" relative="1" as="geometry">
            <mxPoint as="offset" />
            <mxPoint x="430" y="170" as="sourcePoint" />
            <mxPoint x="480" y="230" as="targetPoint" />
            <Array as="points">
              <mxPoint x="430" y="220" />
              <mxPoint x="480" y="220" />
            </Array>
          </mxGeometry>
        </mxCell>
        <mxCell id="v_dUgt0FiKQHOgwZnpZi-9" value="" style="endArrow=classic;html=1;exitX=0.587;exitY=1.006;exitDx=0;exitDy=0;exitPerimeter=0;entryX=0.047;entryY=0.022;entryDx=0;entryDy=0;entryPerimeter=0;" edge="1" parent="WIyWlLk6GJQsqaUBKTNV-1" source="v_dUgt0FiKQHOgwZnpZi-11" target="v_dUgt0FiKQHOgwZnpZi-10">
          <mxGeometry width="50" height="50" relative="1" as="geometry">
            <mxPoint x="450" y="318" as="sourcePoint" />
            <mxPoint x="350" y="328" as="targetPoint" />
          </mxGeometry>
        </mxCell>
        <mxCell id="v_dUgt0FiKQHOgwZnpZi-10" value="Save and exit" style="rounded=1;whiteSpace=wrap;html=1;" vertex="1" parent="WIyWlLk6GJQsqaUBKTNV-1">
          <mxGeometry x="420" y="318" width="120" height="30" as="geometry" />
        </mxCell>
        <mxCell id="v_dUgt0FiKQHOgwZnpZi-11" value="Get portion from date and display formatted" style="rounded=1;whiteSpace=wrap;html=1;fontSize=12;glass=0;strokeWidth=1;shadow=0;" vertex="1" parent="WIyWlLk6GJQsqaUBKTNV-1">
          <mxGeometry x="420" y="238" width="120" height="50" as="geometry" />
        </mxCell>
        <mxCell id="v_dUgt0FiKQHOgwZnpZi-12" value="Save and turn page" style="rounded=1;whiteSpace=wrap;html=1;" vertex="1" parent="WIyWlLk6GJQsqaUBKTNV-1">
          <mxGeometry x="260" y="318" width="120" height="30" as="geometry" />
        </mxCell>
        <mxCell id="v_dUgt0FiKQHOgwZnpZi-14" value="" style="endArrow=classic;html=1;exitX=0.25;exitY=1;exitDx=0;exitDy=0;" edge="1" parent="WIyWlLk6GJQsqaUBKTNV-1" source="v_dUgt0FiKQHOgwZnpZi-11">
          <mxGeometry width="50" height="50" relative="1" as="geometry">
            <mxPoint x="432.38000000000005" y="238.99999999999994" as="sourcePoint" />
            <mxPoint x="367.62" y="318" as="targetPoint" />
          </mxGeometry>
        </mxCell>
        <mxCell id="v_dUgt0FiKQHOgwZnpZi-15" value="" style="endArrow=classic;html=1;exitX=0.833;exitY=1;exitDx=0;exitDy=0;exitPerimeter=0;entryX=0.492;entryY=-0.067;entryDx=0;entryDy=0;entryPerimeter=0;" edge="1" parent="WIyWlLk6GJQsqaUBKTNV-1" source="WIyWlLk6GJQsqaUBKTNV-11" target="v_dUgt0FiKQHOgwZnpZi-10">
          <mxGeometry width="50" height="50" relative="1" as="geometry">
            <mxPoint x="500.44000000000005" y="298.30000000000007" as="sourcePoint" />
            <mxPoint x="480" y="368" as="targetPoint" />
          </mxGeometry>
        </mxCell>
        <mxCell id="v_dUgt0FiKQHOgwZnpZi-16" value="" style="endArrow=classic;html=1;exitX=0.833;exitY=1;exitDx=0;exitDy=0;exitPerimeter=0;entryX=0.281;entryY=-0.078;entryDx=0;entryDy=0;entryPerimeter=0;" edge="1" parent="WIyWlLk6GJQsqaUBKTNV-1" target="v_dUgt0FiKQHOgwZnpZi-10">
          <mxGeometry width="50" height="50" relative="1" as="geometry">
            <mxPoint x="330.00000000000006" y="288" as="sourcePoint" />
            <mxPoint x="450.04" y="368" as="targetPoint" />
          </mxGeometry>
        </mxCell>
        <mxCell id="v_dUgt0FiKQHOgwZnpZi-17" value="" style="endArrow=classic;html=1;exitX=1;exitY=0.75;exitDx=0;exitDy=0;entryX=0;entryY=0.75;entryDx=0;entryDy=0;" edge="1" parent="WIyWlLk6GJQsqaUBKTNV-1" source="v_dUgt0FiKQHOgwZnpZi-12" target="v_dUgt0FiKQHOgwZnpZi-10">
          <mxGeometry width="50" height="50" relative="1" as="geometry">
            <mxPoint x="379.96000000000004" y="258" as="sourcePoint" />
            <mxPoint x="500" y="338" as="targetPoint" />
          </mxGeometry>
        </mxCell>
        <mxCell id="v_dUgt0FiKQHOgwZnpZi-18" value="&lt;div&gt;Continue from save point or&lt;/div&gt;&lt;div&gt;start weekly portion?&lt;/div&gt;" style="rhombus;whiteSpace=wrap;html=1;" vertex="1" parent="WIyWlLk6GJQsqaUBKTNV-1">
          <mxGeometry x="310" y="80" width="180" height="110" as="geometry" />
        </mxCell>
      </root>
    </mxGraphModel>
  </diagram>
</mxfile>
